<svg width="70" height="70" viewBox="0 0 70 70" fill="none" xmlns="http://www.w3.org/2000/svg">
<path d="M34.9999 5.83325C18.9174 5.83325 5.83325 18.9174 5.83325 34.9999V47.0837C5.83325 50.0703 8.4495 52.4999 11.6666 52.4999H14.5833C15.3568 52.4999 16.0987 52.1926 16.6456 51.6457C17.1926 51.0987 17.4999 50.3568 17.4999 49.5833V34.5828C17.4999 33.8093 17.1926 33.0674 16.6456 32.5204C16.0987 31.9735 15.3568 31.6662 14.5833 31.6662H11.9349C13.5566 20.3787 23.2691 11.6666 34.9999 11.6666C46.7308 11.6666 56.4433 20.3787 58.0649 31.6662H55.4166C54.643 31.6662 53.9012 31.9735 53.3542 32.5204C52.8072 33.0674 52.4999 33.8093 52.4999 34.5828V52.4999C52.4999 55.717 49.8837 58.3333 46.6666 58.3333H40.8333V55.4166H29.1666V64.1666H46.6666C53.1008 64.1666 58.3333 58.9341 58.3333 52.4999C61.5503 52.4999 64.1666 50.0703 64.1666 47.0837V34.9999C64.1666 18.9174 51.0824 5.83325 34.9999 5.83325Z" fill="white"/>
</svg>
