<svg width="70" height="70" viewBox="0 0 70 70" fill="none" xmlns="http://www.w3.org/2000/svg">
<path d="M32.7833 31.4806C39.7206 31.4806 45.3444 25.8568 45.3444 18.9195C45.3444 11.9822 39.7206 6.3584 32.7833 6.3584C25.846 6.3584 20.2222 11.9822 20.2222 18.9195C20.2222 25.8568 25.846 31.4806 32.7833 31.4806Z" fill="white"/>
<path d="M40.8333 54.4446H54.4444V57.1668H40.8333V54.4446Z" fill="white"/>
<path d="M29.1666 58.3333V64.1666C29.1666 64.6823 29.3715 65.1769 29.7362 65.5416C30.1008 65.9062 30.5954 66.1111 31.1111 66.1111H64.1666C64.6823 66.1111 65.1769 65.9062 65.5416 65.5416C65.9062 65.1769 66.1111 64.6823 66.1111 64.1666V44.7222C66.1111 44.2065 65.9062 43.7119 65.5416 43.3473C65.1769 42.9826 64.6823 42.7777 64.1666 42.7777H50.5555V39.9194C50.5555 39.4037 50.3507 38.9091 49.986 38.5445C49.6214 38.1798 49.1268 37.975 48.6111 37.975C48.0954 37.975 47.6008 38.1798 47.2362 38.5445C46.8715 38.9091 46.6666 39.4037 46.6666 39.9194V42.7777H42.7778V35.8166C39.4735 35.277 36.1313 35.0039 32.7833 35C25.3999 34.9686 18.0991 36.5548 11.3944 39.6472C10.2909 40.1679 9.35996 40.9943 8.71201 42.0283C8.06406 43.0622 7.72632 44.2604 7.73886 45.4805V58.3333H29.1666ZM62.2222 62.2222H33.0555V46.6666H46.6666V47.4833C46.6666 47.999 46.8715 48.4936 47.2362 48.8582C47.6008 49.2229 48.0954 49.4277 48.6111 49.4277C49.1268 49.4277 49.6214 49.2229 49.986 48.8582C50.3507 48.4936 50.5555 47.999 50.5555 47.4833V46.6666H62.2222V62.2222Z" fill="white"/>
</svg>
