<svg width="70" height="70" viewBox="0 0 70 70" fill="none" xmlns="http://www.w3.org/2000/svg">
<g clip-path="url(#clip0_219_229)">
<path d="M50.5556 26.25C50.5556 14.1682 39.2389 4.375 25.2778 4.375C11.3167 4.375 0 14.1682 0 26.25C0 30.9354 1.71719 35.2666 4.61441 38.8254C2.9908 42.9598 0.30625 46.2328 0.267361 46.2793C0.136504 46.4343 0.0489367 46.6292 0.015501 46.8396C-0.0179347 47.0501 0.00422883 47.267 0.0792479 47.4634C0.154267 47.6599 0.278848 47.8272 0.437567 47.9448C0.596287 48.0624 0.782176 48.1251 0.972222 48.125C5.41771 48.125 9.10608 46.4502 11.7554 44.7098C15.6686 46.8617 20.2976 48.125 25.2778 48.125C39.2389 48.125 50.5556 38.3318 50.5556 26.25ZM23.3333 39.375V37.1479C21.9613 37.0686 20.6269 36.5299 19.521 35.5961C19.047 35.1955 19.0227 34.3971 19.4517 33.9363L20.8797 32.4037C21.2163 32.0428 21.717 32.0264 22.1108 32.3039C22.5811 32.6348 23.1146 32.8125 23.6687 32.8125H27.0849C27.8748 32.8125 28.5189 32.0031 28.5189 31.0092C28.5189 30.1957 28.0802 29.4793 27.4531 29.2688L21.9844 27.423C19.7252 26.6602 18.1465 24.2211 18.1465 21.4908C18.1465 18.1385 20.4616 15.415 23.3321 15.3289V13.125C23.3321 12.5207 23.7672 12.0312 24.3043 12.0312H26.2488C26.7859 12.0312 27.221 12.5207 27.221 13.125V15.3521C28.5931 15.4314 29.9274 15.9688 31.0333 16.9039C31.5073 17.3045 31.5316 18.1029 31.1026 18.5637L29.6747 20.0963C29.338 20.4572 28.8373 20.4736 28.4436 20.1961C27.9733 19.8639 27.4398 19.6875 26.8856 19.6875H23.4694C22.6795 19.6875 22.0354 20.4969 22.0354 21.4908C22.0354 22.3043 22.4741 23.0207 23.1012 23.2312L28.57 25.077C30.8292 25.8398 32.4078 28.2789 32.4078 31.0092C32.4078 34.3629 30.0927 37.085 27.2222 37.1711V39.375C27.2222 39.9793 26.7872 40.4688 26.25 40.4688H24.3056C23.7684 40.4688 23.3333 39.9793 23.3333 39.375ZM65.3832 56.3268C68.2828 52.768 70 48.4354 70 43.75C70 34.598 63.4995 26.7695 54.2828 23.5061C54.3873 24.4084 54.4444 25.323 54.4444 26.25C54.4444 40.7244 41.3608 52.5 25.2778 52.5C23.9677 52.5 22.6868 52.3947 21.4217 52.243C25.2535 60.1057 34.2429 65.625 44.7222 65.625C49.7024 65.625 54.3314 64.3617 58.2446 62.2098C60.8939 63.9502 64.5823 65.625 69.0278 65.625C69.4167 65.625 69.7679 65.3639 69.9198 64.9633C70.0741 64.5613 70 64.0965 69.7314 63.7779C69.6937 63.7328 67.0068 60.4639 65.3832 56.3268Z" fill="white"/>
</g>
<defs>
<clipPath id="clip0_219_229">
<rect width="70" height="70" fill="white"/>
</clipPath>
</defs>
</svg>
