<svg width="70" height="70" viewBox="0 0 70 70" fill="none" xmlns="http://www.w3.org/2000/svg">
<path d="M8.75 13.4983L35.0131 5.83325L61.25 13.4983V29.2162C61.25 45.7362 50.6771 58.9443 35.0044 64.1666C19.3273 58.9458 8.75 45.7333 8.75 29.2089V13.4983Z" stroke="white" stroke-width="4" stroke-linejoin="round"/>
<path d="M49.3715 28.1433C49.3585 27.9734 49.3118 27.8081 49.2341 27.6576C49.1564 27.5072 49.0494 27.3749 48.92 27.269C48.7905 27.163 48.6412 27.0857 48.4815 27.0419C48.3217 26.9981 48.1549 26.9887 47.9915 27.0143C45.3785 27.4443 39.2525 29.9372 35 29.9372C30.7475 29.9372 24.6215 27.4443 22.0085 27.0143C21.8452 26.9885 21.6784 26.9977 21.5187 27.0413C21.3589 27.0849 21.2096 27.162 21.0801 27.2679C20.9506 27.3737 20.8436 27.5059 20.7659 27.6562C20.6882 27.8066 20.6414 27.9719 20.6285 28.1417C20.4155 30.511 20 36.8192 20 37.7749C20 39.0585 25.208 42 29 42C32.678 42 33.425 37.7749 35 37.7749C36.575 37.7749 37.322 42 41 42C44.792 42 50 39.0585 50 37.7749C50 36.8192 49.5845 30.511 49.3715 28.1433ZM31.49 35.6902C30.9605 36.182 29.4875 37.345 27.6935 36.9816C25.8995 36.6181 24.815 34.9355 24.4445 34.2628C24.4006 34.1853 24.3833 34.0948 24.3953 34.0059C24.4072 33.917 24.4478 33.8348 24.5105 33.7726C25.04 33.2808 26.513 32.1178 28.3085 32.4812C30.1025 32.8447 31.187 34.5273 31.5575 35.2C31.6009 35.2778 31.6179 35.3683 31.6056 35.4571C31.5934 35.5459 31.5527 35.628 31.49 35.6902ZM45.5555 34.2628C45.1865 34.9371 44.102 36.6181 42.3065 36.9816C40.5125 37.345 39.038 36.182 38.51 35.6902C38.4473 35.628 38.4066 35.5459 38.3944 35.4571C38.3821 35.3683 38.3991 35.2778 38.4425 35.2C38.8115 34.5257 39.896 32.8447 41.6915 32.4812C43.4855 32.1178 44.96 33.2808 45.488 33.7726C45.5512 33.8345 45.5922 33.9166 45.6044 34.0056C45.6167 34.0946 45.5994 34.1852 45.5555 34.2628Z" fill="white"/>
</svg>
