<svg width="96" height="40" viewBox="0 0 96 40" fill="none" xmlns="http://www.w3.org/2000/svg">
<g clip-path="url(#clip0_130_53)">
<path d="M18.4402 0C8.61686 0 0.651855 7.96333 0.651855 17.7883C0.651855 27.6133 8.61686 35.5767 18.4419 35.5767C21.0535 35.5767 23.6385 35.0883 27.4385 35.06C30.8269 35.06 34.5502 36.25 38.6352 39.87C39.0485 40.2317 39.5919 39.7667 39.2302 39.3267C35.2219 34.2333 31.4969 33.2767 27.7752 32.45C23.2252 31.44 20.8985 28.9067 19.2685 26.0883C18.9585 25.52 18.8019 25.6233 18.7769 26.3483C18.7469 27.4133 18.8269 28.4783 19.0102 29.5283H18.4669C15.347 29.5257 12.3556 28.2851 10.1495 26.079C7.94339 23.8729 6.70284 20.8816 6.70019 17.7617C6.70372 14.6425 7.94471 11.6522 10.1508 9.44705C12.3568 7.24193 15.3477 6.00221 18.4669 6C20.1272 6.00087 21.7686 6.35292 23.2833 7.03303C24.7979 7.71314 26.1516 8.70593 27.2554 9.94622C28.3593 11.1865 29.1883 12.6463 29.688 14.2296C30.1878 15.813 30.347 17.4841 30.1552 19.1333C29.2752 18.9783 27.5935 18.9533 26.4052 19.0567C25.9652 19.1083 26.0169 19.315 26.3535 19.3683C30.2319 20.0917 32.8952 22.4967 33.5152 26.8667C33.5402 26.97 33.6702 26.995 33.7219 26.9167C35.3618 24.1546 36.2282 21.0022 36.2302 17.79C36.2302 7.96333 28.2669 0 18.4402 0ZM31.1802 25.1283C31.0789 25.1172 30.9766 25.136 30.8859 25.1825C30.7952 25.2291 30.7202 25.3012 30.6702 25.39C30.4635 25.7533 30.6202 26.45 31.0069 27.0717C31.3935 27.6917 31.7569 28.0017 32.0169 28.0017C32.2752 28.0017 32.5069 27.6917 32.4035 26.89C32.3535 26.45 32.0935 25.4433 31.4202 25.1833C31.3419 25.1483 31.2519 25.145 31.1802 25.1283ZM27.4902 28.1067C27.1285 28.1067 26.8435 28.2333 26.6619 28.4667C26.1969 29.035 26.4035 30.07 27.1285 30.6917C27.4385 30.975 27.9052 31.13 28.3452 31.13C28.5448 31.1352 28.7431 31.0964 28.926 31.0163C29.1089 30.9362 29.2719 30.8169 29.4035 30.6667C29.8185 30.0967 29.5869 29.32 28.7835 28.6483C28.3702 28.2867 27.9052 28.1067 27.4902 28.1067Z" fill="#A7A7A7"/>
</g>
<path d="M59.7617 13.8203C59.7617 15.3984 59.5 16.7773 58.9766 17.957C58.4531 19.1289 57.7305 20.0703 56.8086 20.7812L59.5625 22.9609L57.0195 25.1172L53.3516 22.1641C53.0078 22.2109 52.6641 22.2344 52.3203 22.2344C50.8672 22.2344 49.5781 21.8984 48.4531 21.2266C47.3281 20.5547 46.4492 19.5938 45.8164 18.3438C45.1914 17.0938 44.8672 15.6562 44.8438 14.0312V13.1289C44.8438 11.4492 45.1484 9.97266 45.7578 8.69922C46.375 7.42578 47.25 6.44141 48.3828 5.74609C49.5234 5.05078 50.8281 4.70312 52.2969 4.70312C53.7422 4.70312 55.0312 5.04687 56.1641 5.73438C57.2969 6.42188 58.1758 7.40234 58.8008 8.67578C59.4336 9.94141 59.7539 11.3945 59.7617 13.0352V13.8203ZM55.5781 13.1055C55.5781 11.4102 55.293 10.125 54.7227 9.25C54.1602 8.36719 53.3516 7.92578 52.2969 7.92578C51.2109 7.92578 50.3945 8.35938 49.8477 9.22656C49.3008 10.0938 49.0234 11.3633 49.0156 13.0352V13.8203C49.0156 15.5 49.293 16.7891 49.8477 17.6875C50.4023 18.5781 51.2266 19.0234 52.3203 19.0234C53.3672 19.0234 54.168 18.582 54.7227 17.6992C55.2852 16.8164 55.5703 15.5469 55.5781 13.8906V13.1055ZM66.2422 22H62.1406V4.9375H66.2422V22ZM82.3203 15.6367L84.2773 4.9375H88.3555L84.7344 22H80.4688L78.1836 12.2734L75.9453 22H71.6914L68.0586 4.9375H72.1484L74.1055 15.6367L76.4492 4.9375H79.9414L82.3203 15.6367ZM94.3438 22H90.2422V4.9375H94.3438V22Z" fill="#A7A7A7"/>
<path d="M47.4834 33V26.6016H49.7817C50.605 26.6016 51.2305 26.7524 51.6582 27.0542C52.0889 27.356 52.3042 27.7939 52.3042 28.3682C52.3042 28.6992 52.228 28.9819 52.0757 29.2163C51.9233 29.4507 51.6992 29.6235 51.4033 29.7349C51.7373 29.8228 51.9937 29.9868 52.1724 30.2271C52.3511 30.4673 52.4404 30.7603 52.4404 31.106C52.4404 31.7329 52.2412 32.2046 51.8428 32.521C51.4473 32.8345 50.8599 32.9941 50.0806 33H47.4834ZM49.0259 30.2798V31.8135H50.0366C50.3149 31.8135 50.5288 31.7505 50.6782 31.6245C50.8276 31.4956 50.9023 31.3154 50.9023 31.084C50.9023 30.5508 50.6372 30.2827 50.1069 30.2798H49.0259ZM49.0259 29.269H49.8301C50.167 29.2661 50.4072 29.2046 50.5508 29.0845C50.6943 28.9644 50.7661 28.7871 50.7661 28.5527C50.7661 28.2832 50.6885 28.0898 50.5332 27.9727C50.3779 27.8525 50.1274 27.7925 49.7817 27.7925H49.0259V29.269ZM55.4154 31.9453C55.6234 31.9453 55.7845 31.8896 55.8987 31.7783C56.013 31.6641 56.0687 31.5059 56.0657 31.3037H57.4544C57.4544 31.8252 57.2669 32.2529 56.8919 32.5869C56.5198 32.9209 56.0394 33.0879 55.4505 33.0879C54.7591 33.0879 54.2142 32.8711 53.8157 32.4375C53.4173 32.0039 53.2181 31.4033 53.2181 30.6357V30.5742C53.2181 30.0938 53.306 29.6704 53.4818 29.3042C53.6605 28.9351 53.9168 28.6523 54.2508 28.4561C54.5848 28.2568 54.9803 28.1572 55.4373 28.1572C56.0555 28.1572 56.5462 28.3286 56.9095 28.6714C57.2728 29.0142 57.4544 29.4785 57.4544 30.0645H56.0657C56.0657 29.8184 56.0057 29.6294 55.8856 29.4976C55.7654 29.3657 55.6043 29.2998 55.4022 29.2998C55.0184 29.2998 54.7943 29.5444 54.7298 30.0337C54.7093 30.189 54.699 30.4028 54.699 30.6753C54.699 31.1528 54.7562 31.4839 54.8704 31.6685C54.9847 31.853 55.1663 31.9453 55.4154 31.9453ZM60.5612 33.0879C59.8317 33.0879 59.2413 32.8711 58.7902 32.4375C58.339 32.001 58.1134 31.4341 58.1134 30.7368V30.6138C58.1134 30.1274 58.2028 29.6982 58.3815 29.3262C58.5631 28.9541 58.8268 28.667 59.1725 28.4648C59.5182 28.2598 59.9284 28.1572 60.403 28.1572C61.0709 28.1572 61.5983 28.3652 61.985 28.7812C62.3717 29.1943 62.5651 29.7715 62.5651 30.5127V31.0884H59.6207C59.6735 31.355 59.7892 31.5645 59.9679 31.7168C60.1466 31.8691 60.3781 31.9453 60.6622 31.9453C61.131 31.9453 61.4972 31.7812 61.7609 31.4531L62.4376 32.2529C62.2531 32.5078 61.9909 32.7114 61.651 32.8638C61.3141 33.0132 60.9508 33.0879 60.5612 33.0879ZM60.3942 29.2998C59.9606 29.2998 59.7028 29.5869 59.6207 30.1611H61.1149V30.0469C61.1207 29.8096 61.0607 29.6265 60.9347 29.4976C60.8087 29.3657 60.6286 29.2998 60.3942 29.2998ZM58.3771 26.9971C58.3771 26.8359 58.4401 26.6982 58.5661 26.584C58.695 26.4697 58.8532 26.4126 59.0407 26.4126C59.2282 26.4126 59.3849 26.4697 59.5109 26.584C59.6398 26.6982 59.7042 26.8359 59.7042 26.9971C59.7042 27.1582 59.6398 27.2959 59.5109 27.4102C59.3849 27.5244 59.2282 27.5815 59.0407 27.5815C58.8532 27.5815 58.695 27.5244 58.5661 27.4102C58.4401 27.2959 58.3771 27.1582 58.3771 26.9971ZM60.6579 26.9971C60.6579 26.8359 60.7208 26.6982 60.8468 26.584C60.9757 26.4697 61.1339 26.4126 61.3214 26.4126C61.5089 26.4126 61.6657 26.4697 61.7916 26.584C61.9205 26.6982 61.985 26.8359 61.985 26.9971C61.985 27.1582 61.9205 27.2959 61.7916 27.4102C61.6657 27.5244 61.5089 27.5815 61.3214 27.5815C61.1339 27.5815 60.9757 27.5244 60.8468 27.4102C60.7208 27.2959 60.6579 27.1582 60.6579 26.9971ZM70.0179 33H68.5281V29.3877H67.2185V33H65.7376V28.2451H70.0179V33ZM75.4054 30.6577C75.4054 31.396 75.2384 31.9863 74.9044 32.4287C74.5733 32.8682 74.1251 33.0879 73.5597 33.0879C73.1231 33.0879 72.7643 32.9282 72.483 32.6089V34.8281H71.0021V28.2451H72.3863L72.4303 28.6846C72.7145 28.333 73.088 28.1572 73.5509 28.1572C74.1368 28.1572 74.5924 28.374 74.9176 28.8076C75.2428 29.2383 75.4054 29.8315 75.4054 30.5874V30.6577ZM73.9244 30.5654C73.9244 29.7217 73.6783 29.2998 73.1861 29.2998C72.8346 29.2998 72.6002 29.4258 72.483 29.6777V31.5498C72.6119 31.8135 72.8492 31.9453 73.1949 31.9453C73.6666 31.9453 73.9098 31.5381 73.9244 30.7236V30.5654ZM76.0556 30.5786C76.0556 30.104 76.1479 29.6821 76.3324 29.313C76.517 28.9409 76.7821 28.6553 77.1279 28.4561C77.4736 28.2568 77.8793 28.1572 78.3451 28.1572C79.0571 28.1572 79.6181 28.3784 80.0282 28.8208C80.4384 29.2603 80.6435 29.8594 80.6435 30.6182V30.6709C80.6435 31.4121 80.4369 32.001 80.0238 32.4375C79.6137 32.8711 79.0571 33.0879 78.3539 33.0879C77.6772 33.0879 77.1337 32.8857 76.7236 32.4814C76.3134 32.0742 76.0922 31.5234 76.06 30.8291L76.0556 30.5786ZM77.5365 30.6709C77.5365 31.1104 77.6054 31.4326 77.7431 31.6377C77.8808 31.8428 78.0844 31.9453 78.3539 31.9453C78.8813 31.9453 79.1508 31.5396 79.1625 30.728V30.5786C79.1625 29.7261 78.8901 29.2998 78.3451 29.2998C77.85 29.2998 77.582 29.6675 77.5409 30.4028L77.5365 30.6709ZM82.9372 28.2451V31.8574H84.0491V28.2451H85.5388V31.8574H86.6506V28.2451H88.1316V31.8662H89.217L89.1291 34.4106H87.7361V33H81.4563V28.2451H82.9372ZM92.3062 33.0879C91.5767 33.0879 90.9864 32.8711 90.5352 32.4375C90.084 32.001 89.8585 31.4341 89.8585 30.7368V30.6138C89.8585 30.1274 89.9478 29.6982 90.1265 29.3262C90.3082 28.9541 90.5718 28.667 90.9175 28.4648C91.2632 28.2598 91.6734 28.1572 92.148 28.1572C92.816 28.1572 93.3433 28.3652 93.73 28.7812C94.1168 29.1943 94.3101 29.7715 94.3101 30.5127V31.0884H91.3658C91.4185 31.355 91.5342 31.5645 91.7129 31.7168C91.8917 31.8691 92.1231 31.9453 92.4073 31.9453C92.876 31.9453 93.2422 31.7812 93.5059 31.4531L94.1827 32.2529C93.9981 32.5078 93.7359 32.7114 93.3961 32.8638C93.0591 33.0132 92.6959 33.0879 92.3062 33.0879ZM92.1392 29.2998C91.7056 29.2998 91.4478 29.5869 91.3658 30.1611H92.8599V30.0469C92.8658 29.8096 92.8057 29.6265 92.6797 29.4976C92.5538 29.3657 92.3736 29.2998 92.1392 29.2998Z" fill="#A7A7A7"/>
<defs>
<clipPath id="clip0_130_53">
<rect width="40" height="40" fill="white"/>
</clipPath>
</defs>
</svg>
