<svg width="70" height="70" viewBox="0 0 70 70" fill="none" xmlns="http://www.w3.org/2000/svg">
<path d="M34.9999 32.0833C38.8677 32.0833 42.577 33.6197 45.3119 36.3546C48.0468 39.0895 49.5833 42.7988 49.5833 46.6666V64.1666H20.4166V46.6666C20.4166 42.7988 21.953 39.0895 24.6879 36.3546C27.4229 33.6197 31.1322 32.0833 34.9999 32.0833ZM15.4233 40.8508C14.9591 42.4164 14.6849 44.0322 14.6066 45.6633L14.5833 46.6666V64.1666H5.83325V51.0416C5.83268 48.5262 6.76083 46.0991 8.43969 44.2259C10.1185 42.3528 12.4299 41.1654 14.9303 40.8916L15.4262 40.8508H15.4233ZM54.5766 40.8508C57.1722 41.009 59.6096 42.1515 61.3917 44.0452C63.1738 45.9389 64.1662 48.4412 64.1666 51.0416V64.1666H55.4166V46.6666C55.4166 44.6453 55.1249 42.6941 54.5766 40.8508ZM16.0416 23.3333C17.9755 23.3333 19.8301 24.1015 21.1976 25.4689C22.565 26.8364 23.3333 28.6911 23.3333 30.6249C23.3333 32.5588 22.565 34.4135 21.1976 35.7809C19.8301 37.1484 17.9755 37.9166 16.0416 37.9166C14.1077 37.9166 12.2531 37.1484 10.8856 35.7809C9.51815 34.4135 8.74992 32.5588 8.74992 30.6249C8.74992 28.6911 9.51815 26.8364 10.8856 25.4689C12.2531 24.1015 14.1077 23.3333 16.0416 23.3333ZM53.9583 23.3333C55.8921 23.3333 57.7468 24.1015 59.1142 25.4689C60.4817 26.8364 61.2499 28.6911 61.2499 30.6249C61.2499 32.5588 60.4817 34.4135 59.1142 35.7809C57.7468 37.1484 55.8921 37.9166 53.9583 37.9166C52.0244 37.9166 50.1697 37.1484 48.8023 35.7809C47.4348 34.4135 46.6666 32.5588 46.6666 30.6249C46.6666 28.6911 47.4348 26.8364 48.8023 25.4689C50.1697 24.1015 52.0244 23.3333 53.9583 23.3333ZM34.9999 5.83325C38.0941 5.83325 41.0616 7.06242 43.2495 9.25034C45.4374 11.4383 46.6666 14.4057 46.6666 17.4999C46.6666 20.5941 45.4374 23.5616 43.2495 25.7495C41.0616 27.9374 38.0941 29.1666 34.9999 29.1666C31.9057 29.1666 28.9383 27.9374 26.7503 25.7495C24.5624 23.5616 23.3333 20.5941 23.3333 17.4999C23.3333 14.4057 24.5624 11.4383 26.7503 9.25034C28.9383 7.06242 31.9057 5.83325 34.9999 5.83325Z" fill="white"/>
</svg>
