<svg width="28" height="28" viewBox="0 0 28 28" fill="none" xmlns="http://www.w3.org/2000/svg">
<g filter="url(#filter0_d_130_25)">
<path d="M15.6328 9.94495L23.7328 1.84495C23.9149 1.63239 24.01 1.35898 23.9992 1.07934C23.9884 0.799697 23.8724 0.534431 23.6746 0.336549C23.4767 0.138666 23.2114 0.0227402 22.9318 0.011939C22.6521 0.00113767 22.3787 0.096256 22.1662 0.278285L14.0662 8.37829L5.96616 0.267174C5.7536 0.0851447 5.48019 -0.00997263 5.20055 0.00082865C4.9209 0.0116299 4.65564 0.127554 4.45776 0.325437C4.25987 0.52332 4.14395 0.788585 4.13315 1.06823C4.12235 1.34787 4.21746 1.62128 4.39949 1.83384L12.4995 9.94495L4.38838 18.045C4.27207 18.1446 4.1776 18.2671 4.11091 18.405C4.04422 18.5428 4.00674 18.693 4.00083 18.846C3.99492 18.999 4.0207 19.1516 4.07656 19.2942C4.13242 19.4368 4.21715 19.5663 4.32544 19.6746C4.43372 19.7828 4.56322 19.8676 4.7058 19.9234C4.84838 19.9793 5.00098 20.0051 5.154 19.9992C5.30702 19.9933 5.45717 19.9558 5.59502 19.8891C5.73287 19.8224 5.85544 19.7279 5.95505 19.6116L14.0662 11.5116L22.1662 19.6116C22.3787 19.7936 22.6521 19.8888 22.9318 19.878C23.2114 19.8672 23.4767 19.7512 23.6746 19.5534C23.8724 19.3555 23.9884 19.0902 23.9992 18.8106C24.01 18.5309 23.9149 18.2575 23.7328 18.045L15.6328 9.94495Z" fill="#B10000"/>
</g>
<defs>
<filter id="filter0_d_130_25" x="0" y="0" width="28" height="28" filterUnits="userSpaceOnUse" color-interpolation-filters="sRGB">
<feFlood flood-opacity="0" result="BackgroundImageFix"/>
<feColorMatrix in="SourceAlpha" type="matrix" values="0 0 0 0 0 0 0 0 0 0 0 0 0 0 0 0 0 0 127 0" result="hardAlpha"/>
<feOffset dy="4"/>
<feGaussianBlur stdDeviation="2"/>
<feComposite in2="hardAlpha" operator="out"/>
<feColorMatrix type="matrix" values="0 0 0 0 0 0 0 0 0 0 0 0 0 0 0 0 0 0 0.25 0"/>
<feBlend mode="normal" in2="BackgroundImageFix" result="effect1_dropShadow_130_25"/>
<feBlend mode="normal" in="SourceGraphic" in2="effect1_dropShadow_130_25" result="shape"/>
</filter>
</defs>
</svg>
