<svg width="11" height="22" viewBox="0 0 11 22" fill="none" xmlns="http://www.w3.org/2000/svg">
<path d="M1.50264 21.0439C1.15216 21.0445 0.812508 20.9225 0.54264 20.6989C0.390752 20.5729 0.265199 20.4183 0.173171 20.2438C0.0811434 20.0692 0.0244489 19.8783 0.00633514 19.6818C-0.0117787 19.4854 0.00904437 19.2872 0.0676111 19.0988C0.126178 18.9104 0.221336 18.7354 0.347639 18.5839L7.06764 10.5439L0.587641 2.48886C0.463042 2.33542 0.369994 2.15888 0.313846 1.96937C0.257699 1.77986 0.239558 1.58113 0.260467 1.38458C0.281376 1.18804 0.340921 0.997567 0.435682 0.824112C0.530442 0.650657 0.65855 0.49764 0.81264 0.373856C0.967839 0.237301 1.14959 0.1343 1.34648 0.0713165C1.54337 0.00833289 1.75116 -0.0132727 1.9568 0.00785468C2.16244 0.028982 2.36149 0.0923866 2.54147 0.194089C2.72144 0.295792 2.87845 0.433597 3.00264 0.598856L10.2476 9.59886C10.4683 9.86726 10.5889 10.2039 10.5889 10.5514C10.5889 10.8988 10.4683 11.2355 10.2476 11.5039L2.74764 20.5039C2.59716 20.6854 2.40601 20.8289 2.1897 20.9227C1.97338 21.0165 1.738 21.058 1.50264 21.0439Z" fill="#737373"/>
</svg>
