<svg width="11" height="21" viewBox="0 0 11 21" fill="none" xmlns="http://www.w3.org/2000/svg">
<path d="M8.75623 21.0019C8.53214 21.0026 8.31072 20.9532 8.10826 20.8571C7.90579 20.7611 7.72741 20.6209 7.58623 20.4469L0.341232 11.4469C0.120609 11.1785 0 10.8418 0 10.4944C0 10.1469 0.120609 9.81028 0.341232 9.54188L7.84123 0.541879C8.09584 0.235554 8.46171 0.0429168 8.85835 0.00634725C9.25498 -0.0302223 9.64991 0.0922705 9.95623 0.346878C10.2626 0.601486 10.4552 0.967353 10.4918 1.36399C10.5283 1.76063 10.4058 2.15555 10.1512 2.46188L3.44623 10.5019L9.92623 18.5419C10.1097 18.7621 10.2262 19.0302 10.262 19.3145C10.2978 19.5988 10.2514 19.8874 10.1284 20.1462C10.0053 20.405 9.81063 20.6231 9.56746 20.7748C9.3243 20.9264 9.04278 21.0052 8.75623 21.0019Z" fill="#737373"/>
</svg>
