<svg width="1920" height="828" viewBox="0 0 1920 828" fill="none" xmlns="http://www.w3.org/2000/svg">
<g clip-path="url(#clip0_219_197)">
<rect x="-0.00012207" y="-0.0219727" width="1920" height="828" fill="#262D36"/>
<path d="M-69.0001 417.977C-26.8528 364.73 129.864 243.886 419.551 186.483C781.659 114.73 1009.99 220.341 1126.55 273.975C1361.84 382.242 1570.34 400.423 1666.58 392.622C1879.52 375.361 2046.08 297.847 2151 142.977" stroke="#3F3F3F"/>
<path d="M-415.999 462.978C-368.574 374.104 -192.232 172.404 133.731 76.5942C541.184 -43.1685 798.106 133.106 929.263 222.627C1194.02 403.334 1428.62 433.68 1536.92 420.659C1776.53 391.848 1963.94 262.47 2082 3.97803" stroke="#3F3F3F"/>
<path d="M2419.44 -436.542C2309.63 -298.771 1966.98 44.9261 1474.85 317.548C859.685 658.325 600.183 543.549 467.471 485.566C199.58 368.523 -103.987 434.725 -257.896 500.672C-598.43 646.584 -919.267 900.595 -1211.62 1292.33" stroke="#353535"/>
<path d="M2988.34 -631C2840.23 -412.786 2398.99 117.281 1818.92 491.836C1093.82 960.029 850.704 705.127 726.197 576.019C474.868 315.401 141.803 368.017 -34.9214 451.36C-425.937 635.76 -822.623 1013.43 -1223 1638.03" stroke="#353535"/>
</g>
<defs>
<clipPath id="clip0_219_197">
<rect width="1920" height="828" fill="white"/>
</clipPath>
</defs>
</svg>
